<svg width="48" height="48" viewBox="0 0 48 48" fill="none" xmlns="http://www.w3.org/2000/svg">
<rect width="48" height="48" rx="24" fill="#F0F0F0"/>
<path d="M23.72 32.243L23.6 32.3629L23.468 32.243C17.768 27.0757 14 23.6588 14 20.194C14 17.7962 15.8 15.9978 18.2 15.9978C20.048 15.9978 21.848 17.1967 22.484 18.8272H24.716C25.352 17.1967 27.152 15.9978 29 15.9978C31.4 15.9978 33.2 17.7962 33.2 20.194C33.2 23.6588 29.432 27.0757 23.72 32.243ZM29 13.6C26.912 13.6 24.908 14.5711 23.6 16.0937C22.292 14.5711 20.288 13.6 18.2 13.6C14.504 13.6 11.6 16.4893 11.6 20.194C11.6 24.7139 15.68 28.4185 21.86 34.0174L23.6 35.6L25.34 34.0174C31.52 28.4185 35.6 24.7139 35.6 20.194C35.6 16.4893 32.696 13.6 29 13.6Z" fill="black"/>
</svg>
